<svg width="400" height="201" viewBox="0 0 400 201" fill="none" xmlns="http://www.w3.org/2000/svg">
<path d="M330.043 90.5158C341.012 90.4819 349.013 100.909 346.163 111.526C339.843 135.057 321.597 170.554 268.93 175.821C189.126 183.804 185.494 197.106 133.479 197.106C106.996 197.106 83.5649 192.983 63.336 186.102C16.0143 170.01 26.4472 90.9535 75.8572 91.0761C113.193 91.1692 273.883 90.6871 330.043 90.5137V90.5158Z" fill="#E5EBFF"/>
<path d="M199.557 47.8853L252.625 36.583C261.448 34.7032 269.303 42.5038 267.513 51.3659L262.868 74.3596H200.955C197.239 74.3596 194.227 71.34 194.227 67.6142V54.4827C194.227 51.2961 196.45 48.5451 199.557 47.8832V47.8853Z" fill="#E5EBFF"/>
<mask id="mask0_6145_18035" style="mask-type:alpha" maskUnits="userSpaceOnUse" x="194" y="36" width="74" height="39">
<path d="M199.557 47.8853L252.625 36.583C261.448 34.7032 269.303 42.5038 267.513 51.3659L262.868 74.3596H200.955C197.239 74.3596 194.227 71.34 194.227 67.6142V54.4827C194.227 51.2961 196.45 48.5451 199.557 47.8832V47.8853Z" fill="url(#paint0_linear_6145_18035)"/>
</mask>
<g mask="url(#mask0_6145_18035)">
<path d="M199.557 47.8853L252.625 36.583C261.448 34.7032 269.303 42.5038 267.513 51.3659L262.868 74.3596H200.955C197.239 74.3596 194.227 71.34 194.227 67.6142V54.4827C194.227 51.2961 196.45 48.5451 199.557 47.8832V47.8853Z" fill="#3366FF"/>
</g>
<mask id="mask1_6145_18035" style="mask-type:luminance" maskUnits="userSpaceOnUse" x="194" y="36" width="74" height="39">
<path d="M199.563 47.8832L252.625 36.583C261.448 34.7032 269.304 42.5038 267.513 51.3659L262.868 74.3596H200.964C197.243 74.3596 194.225 71.3358 194.225 67.6036V54.4891C194.225 51.2982 196.45 48.5451 199.563 47.8811V47.8832Z" fill="white"/>
</mask>
<g mask="url(#mask1_6145_18035)">
<path d="M194.227 55.5947L270.011 45.1191" stroke="#3366FF" stroke-width="2.53125" stroke-miterlimit="10"/>
<path d="M194.056 62.5559L270.196 55.1211" stroke="#3366FF" stroke-width="2.53125" stroke-miterlimit="10"/>
<path d="M193.911 69.2337L270.325 65.584" stroke="#3366FF" stroke-width="2.53125" stroke-miterlimit="10"/>
</g>
<path d="M200.171 74.3633H270.105V79.895C270.105 81.6648 268.673 83.1006 266.907 83.1006H200.171V74.3633Z" fill="#3366FF"/>
<path d="M240.152 66.5487C239.376 66.5487 238.711 66.0201 238.532 65.2631L234.062 46.2976C234.058 46.2807 234.047 46.2363 234.087 46.1855C234.127 46.1348 234.174 46.1348 234.191 46.1348H277.384L282.196 66.5466H240.154L240.152 66.5487Z" fill="#E5EBFF"/>
<path d="M276.215 47.6166L280.328 65.0681H240.151C240.063 65.0681 239.989 65.0089 239.968 64.9222L235.888 47.6166H276.213M277.508 44.6562H234.188C233.15 44.6562 232.384 45.6268 232.623 46.6397L237.093 65.6052C237.428 67.0262 238.694 68.0306 240.149 68.0306H282.394C283.244 68.0306 283.872 67.2355 283.676 66.4066L278.791 45.6755C278.649 45.0792 278.12 44.6584 277.508 44.6584V44.6562Z" fill="#97B1FF"/>
<path d="M254.364 78.7319V83.1027H204.391V78.7319C204.391 77.6767 205.245 76.8203 206.298 76.8203H252.457C253.51 76.8203 254.364 77.6767 254.364 78.7319Z" fill="#F3F6F9"/>
<mask id="mask2_6145_18035" style="mask-type:alpha" maskUnits="userSpaceOnUse" x="204" y="76" width="51" height="8">
<path d="M254.364 78.7319V83.1027H204.391V78.7319C204.391 77.6767 205.245 76.8203 206.298 76.8203H252.457C253.51 76.8203 254.364 77.6767 254.364 78.7319Z" fill="url(#paint1_linear_6145_18035)"/>
</mask>
<g mask="url(#mask2_6145_18035)">
<path d="M254.364 78.7319V83.1027H204.391V78.7319C204.391 77.6767 205.245 76.8203 206.298 76.8203H252.457C253.51 76.8203 254.364 77.6767 254.364 78.7319Z" fill="#3366FF"/>
</g>
<path d="M181.147 82.2422H272.321C279.495 82.2422 286.635 83.2403 293.535 85.2089L303.702 88.108C305.29 88.5605 304.959 90.9076 303.307 90.9013L181.145 90.4594V82.2422H181.147Z" fill="#97B1FF"/>
<path d="M109.733 39.756H133.409C144.725 39.756 153.914 48.967 153.914 60.3116V63.4285H104.287V45.2137C104.287 42.2005 106.727 39.7539 109.733 39.7539V39.756Z" fill="#E5EBFF"/>
<mask id="mask3_6145_18035" style="mask-type:alpha" maskUnits="userSpaceOnUse" x="104" y="39" width="50" height="25">
<path d="M109.733 39.756H133.408C144.725 39.756 153.913 48.967 153.913 60.3116V63.4285H104.286V45.2137C104.286 42.2005 106.727 39.7539 109.733 39.7539V39.756Z" fill="url(#paint2_linear_6145_18035)"/>
</mask>
<g mask="url(#mask3_6145_18035)">
<path d="M109.733 39.756H133.408C144.725 39.756 153.913 48.967 153.913 60.3116V63.4285H104.286V45.2137C104.286 42.2005 106.727 39.7539 109.733 39.7539V39.756Z" fill="#3366FF"/>
</g>
<path d="M129.902 90.9421H84.7061L89.6378 52.14C90.0702 48.7313 93.1647 46.3081 96.5692 46.7119L153.425 53.4701C155.811 53.7534 157.608 55.7813 157.608 58.1898V90.9421H129.902Z" fill="#E5EBFF"/>
<mask id="mask4_6145_18035" style="mask-type:alpha" maskUnits="userSpaceOnUse" x="84" y="46" width="74" height="45">
<path d="M129.902 90.9421H84.7061L89.6378 52.14C90.0702 48.7313 93.1647 46.3081 96.5692 46.7119L153.425 53.4701C155.811 53.7534 157.608 55.7813 157.608 58.1898V90.9421H129.902Z" fill="url(#paint3_linear_6145_18035)"/>
</mask>
<g mask="url(#mask4_6145_18035)">
<path d="M129.902 90.9421H84.7061L89.6378 52.14C90.0702 48.7313 93.1647 46.3081 96.5692 46.7119L153.425 53.4701C155.811 53.7534 157.608 55.7813 157.608 58.1898V90.9421H129.902Z" fill="#3366FF"/>
</g>
<path d="M89.402 72.5H127.632L126.346 90.9411H88.1152L89.402 72.5Z" fill="#F3F6F9"/>
<path d="M132.678 67.343L132.421 71.0181C132.362 71.8534 131.67 72.4983 130.837 72.4983H91.5305C90.3324 72.4983 89.3368 73.4287 89.2545 74.6255L88.1176 90.9394H80.2812L81.897 67.7659C81.9814 66.567 82.9749 65.6387 84.173 65.6387H131.094C132.016 65.6387 132.744 66.4211 132.678 67.343Z" fill="#97B1FF"/>
<mask id="mask5_6145_18035" style="mask-type:alpha" maskUnits="userSpaceOnUse" x="80" y="65" width="53" height="26">
<path d="M132.678 67.343L132.421 71.0181C132.362 71.8534 131.67 72.4983 130.837 72.4983H91.5305C90.3324 72.4983 89.3368 73.4287 89.2545 74.6255L88.1176 90.9394H80.2812L81.897 67.7659C81.9814 66.567 82.9749 65.6387 84.173 65.6387H131.094C132.016 65.6387 132.744 66.4211 132.678 67.343Z" fill="url(#paint4_linear_6145_18035)"/>
</mask>
<g mask="url(#mask5_6145_18035)">
<path d="M132.678 67.343L132.421 71.0181C132.362 71.8534 131.67 72.4983 130.837 72.4983H91.5305C90.3324 72.4983 89.3368 73.4287 89.2545 74.6255L88.1176 90.9394H80.2812L81.897 67.7659C81.9814 66.567 82.9749 65.6387 84.173 65.6387H131.094C132.016 65.6387 132.744 66.4211 132.678 67.343Z" fill="#3366FF"/>
</g>
<path d="M107.483 90.9411H105.837L107.122 72.5H108.769L107.483 90.9411Z" fill="#E5EBFF"/>
<path d="M88.9077 83.1123V81.4629H127.007L126.891 83.1123H88.9077Z" fill="#E5EBFF"/>
<path d="M89.714 51.5453L88.7036 59.5024L157.611 66.8145V57.7431C157.611 55.5883 156.003 53.7741 153.869 53.5203L95.9788 46.6395C92.9013 46.2737 90.1063 48.4623 89.714 51.5432V51.5453Z" fill="#F3F6F9"/>
<path d="M104.648 47.6699L102.678 60.9853" stroke="#E5EBFF" stroke-width="2.53125" stroke-miterlimit="10"/>
<path d="M122.168 49.7539L120.278 62.8536" stroke="#E5EBFF" stroke-width="2.53125" stroke-miterlimit="10"/>
<path d="M139.303 51.791L137.327 64.6644" stroke="#E5EBFF" stroke-width="2.53125" stroke-miterlimit="10"/>
<path d="M169.243 94.9354H144.039L150.698 73.054C151.234 71.2968 152.845 70.0957 154.67 70.0957H163.997C167.448 70.0957 170.855 70.8887 173.958 72.4154L218.843 94.4914L169.243 94.9354Z" fill="#F3F6F9"/>
<path d="M338.769 14.8134C338.769 14.8134 334.137 19.641 309.664 8.71715C309.664 8.71715 321.582 12.3034 333.127 6.43555C333.127 6.43555 347.162 7.49071 338.767 14.8134H338.769Z" fill="#97B1FF"/>
<path d="M345.954 51.3191C344.281 47.9126 339.904 44.155 334.137 44.6308L310.086 45.4555C310.086 45.4555 320.806 44.6308 340.081 60.7099C340.081 60.7099 348.879 57.2716 345.956 51.3191H345.954Z" fill="#97B1FF"/>
<path d="M302.06 39.5859C302.06 39.5859 301.441 65.2609 322.512 71.243" stroke="#144EC5" stroke-width="3.375" stroke-miterlimit="10"/>
<path d="M311.352 118.648L334.108 21.9707" stroke="#144EC5" stroke-width="3.375" stroke-miterlimit="10"/>
<path d="M328.09 51.3208C333.705 54.8965 338.331 59.8658 343.93 63.4668C349.528 67.0679 356.805 69.1867 362.815 66.3278C364.777 65.3953 366.47 63.9934 368.141 62.6062C370.892 60.3225 373.716 57.9521 375.372 54.7802C377.041 51.5873 377.37 47.8276 376.956 44.2476C376.315 38.6885 373.921 33.3471 370.204 29.173C368.668 27.4475 366.907 25.9102 365.597 24.0071C362.743 19.8541 362.271 14.3097 359.007 10.4718C356.36 7.35495 352.274 5.86418 348.273 5.04373C344.666 4.30364 340.892 4.00971 337.321 4.91052C333.277 5.93185 329.723 8.42068 325.684 9.4547C315.685 12.0112 304.649 5.28691 295.077 9.15021C288.656 11.7405 284.694 18.9871 285.209 25.906C285.721 32.8248 290.273 39.1093 296.315 42.4925C301.428 45.3557 306.273 45.1823 311.876 45.565C317.543 45.952 323.334 48.2949 328.088 51.3229L328.09 51.3208Z" fill="#97B1FF"/>
<mask id="mask6_6145_18035" style="mask-type:alpha" maskUnits="userSpaceOnUse" x="309" y="6" width="33" height="10">
<path d="M338.768 14.8134C338.768 14.8134 334.136 19.641 309.663 8.71715C309.663 8.71715 321.581 12.3034 333.126 6.43555C333.126 6.43555 347.161 7.49071 338.766 14.8134H338.768Z" fill="url(#paint5_linear_6145_18035)"/>
</mask>
<g mask="url(#mask6_6145_18035)">
<path d="M338.768 14.8134C338.768 14.8134 334.136 19.641 309.663 8.71715C309.663 8.71715 321.581 12.3034 333.126 6.43555C333.126 6.43555 347.161 7.49071 338.766 14.8134H338.768Z" fill="#3366FF"/>
</g>
<mask id="mask7_6145_18035" style="mask-type:alpha" maskUnits="userSpaceOnUse" x="310" y="44" width="37" height="17">
<path d="M345.953 51.3191C344.28 47.9126 339.903 44.155 334.136 44.6308L310.085 45.4555C310.085 45.4555 320.805 44.6308 340.08 60.7099C340.08 60.7099 348.878 57.2716 345.955 51.3191H345.953Z" fill="url(#paint6_linear_6145_18035)"/>
</mask>
<g mask="url(#mask7_6145_18035)">
<path d="M345.953 51.3191C344.28 47.9126 339.903 44.155 334.136 44.6308L310.085 45.4555C310.085 45.4555 320.805 44.6308 340.08 60.7099C340.08 60.7099 348.878 57.2716 345.955 51.3191H345.953Z" fill="#3366FF"/>
</g>
<path d="M348.068 65.6719C348.068 65.6719 338.9 86.0562 320.209 81.0193" stroke="#144EC5" stroke-width="3.375" stroke-miterlimit="10"/>
<path d="M286.702 116.506H339.714C342.284 116.506 344.366 118.593 344.366 121.168V125.774H280.757L282.192 120.035C282.711 117.961 284.569 116.506 286.704 116.506H286.702Z" fill="#97B1FF"/>
<path d="M32.6533 149.9H58.6661V159.64H22.9375C22.9375 154.267 27.2912 149.9 32.6533 149.9Z" fill="#3366FF"/>
<path d="M52.1274 137.676C53.0788 137.3 53.9858 136.862 54.7684 136.243C58.232 133.498 56.1943 130.113 65.3089 126.351C65.2878 126.38 65.3427 126.336 65.3089 126.351C67.6102 127.442 68.2937 129.614 68.2199 131.954C68.0891 136.124 63.9885 139.066 60.0017 137.873C55.7007 136.585 52.1295 137.676 52.1295 137.676H52.1274Z" fill="#97B1FF"/>
<path d="M60.4659 70.4132H43.42C42.1628 70.4132 41.3993 69.3919 41.7114 68.1316L46.9743 46.9691C47.2886 45.7088 48.5606 44.6875 49.8178 44.6875H66.8636C68.1208 44.6875 68.8844 45.7088 68.5722 46.9691L63.3093 68.1316C62.995 69.3919 61.7231 70.4132 60.4659 70.4132Z" fill="#E5EBFF"/>
<path d="M53.1084 135.595V67.6582" stroke="#3366FF" stroke-width="2.53125" stroke-miterlimit="10"/>
<path d="M62.143 75.5924H39.1676C36.6955 75.5924 35.1915 73.5836 35.8074 71.1053L42.549 43.9988C43.1649 41.5205 45.6687 39.5117 48.1409 39.5117H71.1162C73.5884 39.5117 75.0924 41.5205 74.4765 43.9988L67.7349 71.1053C67.119 73.5836 64.6151 75.5924 62.143 75.5924Z" fill="#E5EBFF"/>
<path d="M61.794 159.541H44.4233L46.1973 127.84C46.3851 124.484 49.1547 121.857 52.5086 121.857H53.7067C57.0606 121.857 59.8302 124.484 60.0179 127.84L61.7919 159.541H61.794Z" fill="#144EC5"/>
<mask id="mask8_6145_18035" style="mask-type:alpha" maskUnits="userSpaceOnUse" x="41" y="44" width="28" height="27">
<path d="M60.4659 70.4132H43.42C42.1628 70.4132 41.3993 69.3919 41.7114 68.1316L46.9743 46.9691C47.2886 45.7088 48.5606 44.6875 49.8178 44.6875H66.8636C68.1208 44.6875 68.8844 45.7088 68.5722 46.9691L63.3093 68.1316C62.995 69.3919 61.7231 70.4132 60.4659 70.4132Z" fill="url(#paint7_linear_6145_18035)"/>
</mask>
<g mask="url(#mask8_6145_18035)">
<path d="M60.4659 70.4132H43.42C42.1628 70.4132 41.3993 69.3919 41.7114 68.1316L46.9743 46.9691C47.2886 45.7088 48.5606 44.6875 49.8178 44.6875H66.8636C68.1208 44.6875 68.8844 45.7088 68.5722 46.9691L63.3093 68.1316C62.995 69.3919 61.7231 70.4132 60.4659 70.4132Z" fill="#3366FF"/>
</g>
<path d="M103.25 159.643C105.421 159.643 107.146 157.768 106.912 155.604C106.695 153.579 105.898 151.485 104.767 150.443C102.772 148.599 100.032 147.624 97.4033 146.63C94.775 145.636 92.0729 144.503 90.3158 142.469C88.8181 140.733 88.1748 138.533 87.2192 136.506C84.8778 131.545 80.2477 127.341 74.506 125.96C68.7664 124.58 62.0375 126.415 58.7005 130.881C57.3674 132.666 56.551 134.82 54.7665 136.243C52.7141 137.878 49.7778 138.231 47.4892 139.58C44.1205 141.568 41.3825 145.332 41.5428 148.982C41.6441 151.25 42.3338 153.784 43.4687 156.021C44.6014 158.248 46.8901 159.643 49.3834 159.643H103.246H103.25Z" fill="#97B1FF"/>
<mask id="mask9_6145_18035" style="mask-type:alpha" maskUnits="userSpaceOnUse" x="52" y="126" width="17" height="13">
<path d="M52.1279 137.678C53.0793 137.302 53.9863 136.864 54.7689 136.245C58.2325 133.5 56.1948 130.115 65.3094 126.353C65.2883 126.382 65.3432 126.338 65.3094 126.353C67.6107 127.444 68.2942 129.615 68.2203 131.956C68.0896 136.126 63.9889 139.068 60.0022 137.875C55.7012 136.587 52.13 137.678 52.13 137.678H52.1279Z" fill="url(#paint8_linear_6145_18035)"/>
</mask>
<g mask="url(#mask9_6145_18035)">
<path d="M52.1279 137.678C53.0793 137.302 53.9863 136.864 54.7689 136.245C58.2325 133.5 56.1948 130.115 65.3094 126.353C65.2883 126.382 65.3432 126.338 65.3094 126.353C67.6107 127.444 68.2942 129.615 68.2203 131.956C68.0896 136.126 63.9889 139.068 60.0022 137.875C55.7012 136.587 52.13 137.678 52.13 137.678H52.1279Z" fill="#3366FF"/>
</g>
<path d="M71.6572 144.229L79.8753 160.454" stroke="#091C35" stroke-width="2.53125" stroke-miterlimit="10"/>
<path d="M64.5908 148.668C64.5908 148.668 66.3332 153.823 76.2472 152.713" stroke="#091C35" stroke-width="2.53125" stroke-miterlimit="10"/>
<defs>
<linearGradient id="paint0_linear_6145_18035" x1="230.998" y1="36.3008" x2="230.998" y2="74.3596" gradientUnits="userSpaceOnUse">
<stop/>
<stop offset="1" stop-opacity="0"/>
</linearGradient>
<linearGradient id="paint1_linear_6145_18035" x1="181.773" y1="76.8798" x2="254.338" y2="82.9822" gradientUnits="userSpaceOnUse">
<stop/>
<stop offset="1" stop-opacity="0"/>
</linearGradient>
<linearGradient id="paint2_linear_6145_18035" x1="193.48" y1="34.5881" x2="109.392" y2="57.7424" gradientUnits="userSpaceOnUse">
<stop/>
<stop offset="1" stop-opacity="0"/>
</linearGradient>
<linearGradient id="paint3_linear_6145_18035" x1="222.063" y1="73.7079" x2="99.5079" y2="74.9704" gradientUnits="userSpaceOnUse">
<stop/>
<stop offset="1" stop-opacity="0"/>
</linearGradient>
<linearGradient id="paint4_linear_6145_18035" x1="86.9571" y1="39.8741" x2="106.552" y2="90.8028" gradientUnits="userSpaceOnUse">
<stop/>
<stop offset="1" stop-opacity="0"/>
</linearGradient>
<linearGradient id="paint5_linear_6145_18035" x1="309.6" y1="-1.99295" x2="323.143" y2="15.9489" gradientUnits="userSpaceOnUse">
<stop/>
<stop offset="1" stop-opacity="0"/>
</linearGradient>
<linearGradient id="paint6_linear_6145_18035" x1="338.393" y1="32.4741" x2="334.473" y2="52.5588" gradientUnits="userSpaceOnUse">
<stop/>
<stop offset="1" stop-opacity="0"/>
</linearGradient>
<linearGradient id="paint7_linear_6145_18035" x1="62.4882" y1="6.35948" x2="55.1062" y2="70.4091" gradientUnits="userSpaceOnUse">
<stop/>
<stop offset="1" stop-opacity="0"/>
</linearGradient>
<linearGradient id="paint8_linear_6145_18035" x1="60.2737" y1="150.89" x2="57.7303" y2="132.284" gradientUnits="userSpaceOnUse">
<stop/>
<stop offset="1" stop-opacity="0"/>
</linearGradient>
</defs>
</svg>
