<svg width="300" height="300" viewBox="0 0 300 300" fill="none" xmlns="http://www.w3.org/2000/svg">
<path d="M84.2935 215.319H199.208C203.461 215.319 206.697 211.509 206.011 207.313L193.002 127.974C192.455 124.644 189.578 122.199 186.2 122.199H71.2847C67.0322 122.199 63.796 126.009 64.4822 130.205L77.491 209.544C78.0385 212.874 80.9147 215.319 84.2935 215.319Z" fill="#F3F6F9"/>
<mask id="mask0_6177_3459" style="mask-type:alpha" maskUnits="userSpaceOnUse" x="64" y="122" width="143" height="94">
<path d="M84.2935 215.319H199.208C203.461 215.319 206.697 211.509 206.011 207.313L193.002 127.974C192.455 124.644 189.578 122.199 186.2 122.199H71.2847C67.0322 122.199 63.796 126.009 64.4822 130.205L77.491 209.544C78.0385 212.874 80.9147 215.319 84.2935 215.319Z" fill="url(#paint0_linear_6177_3459)"/>
</mask>
<g mask="url(#mask0_6177_3459)">
<path d="M84.2935 215.319H199.208C203.461 215.319 206.697 211.509 206.011 207.313L193.002 127.974C192.455 124.644 189.578 122.199 186.2 122.199H71.2847C67.0322 122.199 63.796 126.009 64.4822 130.205L77.491 209.544C78.0385 212.874 80.9147 215.319 84.2935 215.319Z" fill="#3366FF"/>
</g>
<path fill-rule="evenodd" clip-rule="evenodd" d="M214.967 111.848L159.572 166.823L159.57 166.825C156.792 169.577 152.54 170.2 149.088 168.35C149.088 168.35 149.088 168.35 149.087 168.35L128.264 157.19L128.264 157.19C126.964 156.493 125.372 156.644 124.23 157.573L124.229 157.574L98.729 178.281L95.4194 174.206L120.918 153.499C120.919 153.499 120.919 153.499 120.919 153.498C123.707 151.233 127.582 150.867 130.745 152.563L151.568 163.722L151.568 163.723C152.984 164.482 154.731 164.228 155.875 163.095C155.875 163.095 155.876 163.095 155.876 163.095L211.269 108.122L214.967 111.848ZM157.722 164.959L157.723 164.96L157.722 164.959L122.574 155.535L122.574 155.536" fill="#69FEFF"/>
<path d="M164.227 132.798H132.791C131.148 132.798 129.72 131.673 129.337 130.079L125.925 115.976C125.385 113.737 127.08 111.584 129.378 111.584H160.815C162.457 111.584 163.886 112.709 164.268 114.303L167.681 128.407C168.221 130.646 166.526 132.798 164.227 132.798Z" fill="#091C35"/>
<path d="M209.653 178.091H186.276C185.057 178.091 183.992 177.255 183.707 176.07L181.168 165.581C180.767 163.916 182.027 162.315 183.737 162.315H207.114C208.333 162.315 209.398 163.151 209.683 164.336L212.222 174.825C212.623 176.49 211.363 178.091 209.653 178.091Z" fill="#091C35"/>
<path d="M170.419 132.798H138.982C137.34 132.798 135.911 131.673 135.529 130.079L132.116 115.976C131.576 113.737 133.271 111.584 135.57 111.584H167.006C168.649 111.584 170.077 112.709 170.46 114.303L173.872 128.407C174.412 130.646 172.717 132.798 170.419 132.798Z" fill="#FF6047"/>
<path d="M215.177 178.091H191.799C190.58 178.091 189.515 177.255 189.23 176.07L186.692 165.581C186.29 163.916 187.55 162.315 189.26 162.315H212.638C213.857 162.315 214.922 163.151 215.207 164.336L217.745 174.825C218.147 176.49 216.887 178.091 215.177 178.091Z" fill="#00C1BF"/>
<path fill-rule="evenodd" clip-rule="evenodd" d="M78.9194 88.0156L84.0953 87.1362L102.53 195.64H231.755V200.89H98.097L78.9194 88.0156Z" fill="#144EC5"/>
<path fill-rule="evenodd" clip-rule="evenodd" d="M80.7381 81.6332C81.6043 81.4986 82.4806 81.8052 83.0739 82.4505L93.9676 94.3006L90.1026 97.8536L81.867 88.8951L76.9482 99.4819L72.187 97.2698L78.7608 83.121C79.1301 82.326 79.8719 81.7679 80.7381 81.6332Z" fill="#144EC5"/>
<path fill-rule="evenodd" clip-rule="evenodd" d="M230.106 198.415L220.47 191.824L223.434 187.491L236.312 196.299C237.035 196.794 237.464 197.618 237.455 198.494C237.445 199.371 236.999 200.185 236.265 200.664L223.391 209.068L220.521 204.672L230.106 198.415Z" fill="#144EC5"/>
<g opacity="0.3" filter="url(#filter0_f_6177_3459)">
<ellipse cx="145" cy="259" rx="80" ry="7" fill="url(#paint1_linear_6177_3459)"/>
</g>
<defs>
<filter id="filter0_f_6177_3459" x="58.723" y="245.723" width="172.554" height="26.554" filterUnits="userSpaceOnUse" color-interpolation-filters="sRGB">
<feFlood flood-opacity="0" result="BackgroundImageFix"/>
<feBlend mode="normal" in="SourceGraphic" in2="BackgroundImageFix" result="shape"/>
<feGaussianBlur stdDeviation="3.1385" result="effect1_foregroundBlur_6177_3459"/>
</filter>
<linearGradient id="paint0_linear_6177_3459" x1="88.9526" y1="263.477" x2="148.578" y2="139.352" gradientUnits="userSpaceOnUse">
<stop offset="0.0991394"/>
<stop offset="1" stop-opacity="0"/>
</linearGradient>
<linearGradient id="paint1_linear_6177_3459" x1="118.559" y1="252" x2="241.51" y2="267.141" gradientUnits="userSpaceOnUse">
<stop stop-color="#345CD5"/>
<stop offset="1" stop-color="#3366FF" stop-opacity="0.03"/>
</linearGradient>
</defs>
</svg>
