<svg width="35" height="41" viewBox="0 0 35 41" fill="none" xmlns="http://www.w3.org/2000/svg">
<foreignObject x="-3.44824" y="-3.44873" width="41.8965" height="36.6201"><div xmlns="http://www.w3.org/1999/xhtml" style="backdrop-filter:blur(2px);clip-path:url(#bgblur_0_1308_2093_clip_path);height:100%;width:100%"></div></foreignObject><rect data-figma-bg-blur-radius="4" y="9.89795" width="29.6874" height="21.0286" rx="2" transform="rotate(-19.4765 0 9.89795)" fill="url(#paint0_linear_1308_2093)"/>
<foreignObject x="-0.719727" y="5.07568" width="36.4395" height="36.4395"><div xmlns="http://www.w3.org/1999/xhtml" style="backdrop-filter:blur(2px);clip-path:url(#bgblur_1_1308_2093_clip_path);height:100%;width:100%"></div></foreignObject><g filter="url(#filter1_di_1308_2093)" data-figma-bg-blur-radius="4">
<circle cx="17.5001" cy="23.2955" r="14.2198" fill="url(#paint1_linear_1308_2093)" shape-rendering="crispEdges"/>
</g>
<foreignObject x="9.13867" y="12.2651" width="17.835" height="18.3975"><div xmlns="http://www.w3.org/1999/xhtml" style="backdrop-filter:blur(2px);clip-path:url(#bgblur_2_1308_2093_clip_path);height:100%;width:100%"></div></foreignObject><path data-figma-bg-blur-radius="4" fill-rule="evenodd" clip-rule="evenodd" d="M13.6655 16.3104C14.0768 16.1652 14.5279 16.3807 14.6733 16.7919L17.5376 24.8915L21.9272 23.3886C22.34 23.2472 22.7898 23.468 22.9312 23.8808C23.0722 24.2933 22.8523 24.7422 22.4399 24.8837L17.3696 26.62C17.278 26.6513 17.1847 26.6634 17.0933 26.661C16.7509 26.6813 16.4224 26.476 16.3022 26.1366L13.1841 17.3192C13.0386 16.9079 13.2542 16.4559 13.6655 16.3104Z" fill="url(#paint2_linear_1308_2093)"/>
<defs>
<clipPath id="bgblur_0_1308_2093_clip_path" transform="translate(3.44824 3.44873)"><rect y="9.89795" width="29.6874" height="21.0286" rx="2" transform="rotate(-19.4765 0 9.89795)"/>
</clipPath><filter id="filter1_di_1308_2093" x="-0.719727" y="5.07568" width="36.4395" height="36.4395" filterUnits="userSpaceOnUse" color-interpolation-filters="sRGB">
<feFlood flood-opacity="0" result="BackgroundImageFix"/>
<feColorMatrix in="SourceAlpha" type="matrix" values="0 0 0 0 0 0 0 0 0 0 0 0 0 0 0 0 0 0 127 0" result="hardAlpha"/>
<feOffset dy="1"/>
<feGaussianBlur stdDeviation="0.75"/>
<feComposite in2="hardAlpha" operator="out"/>
<feColorMatrix type="matrix" values="0 0 0 0 0 0 0 0 0 0 0 0 0 0 0 0 0 0 0.25 0"/>
<feBlend mode="normal" in2="BackgroundImageFix" result="effect1_dropShadow_1308_2093"/>
<feBlend mode="normal" in="SourceGraphic" in2="effect1_dropShadow_1308_2093" result="shape"/>
<feColorMatrix in="SourceAlpha" type="matrix" values="0 0 0 0 0 0 0 0 0 0 0 0 0 0 0 0 0 0 127 0" result="hardAlpha"/>
<feOffset dy="8"/>
<feGaussianBlur stdDeviation="2"/>
<feComposite in2="hardAlpha" operator="arithmetic" k2="-1" k3="1"/>
<feColorMatrix type="matrix" values="0 0 0 0 1 0 0 0 0 1 0 0 0 0 1 0 0 0 0.25 0"/>
<feBlend mode="normal" in2="shape" result="effect2_innerShadow_1308_2093"/>
</filter>
<clipPath id="bgblur_1_1308_2093_clip_path" transform="translate(0.719727 -5.07568)"><circle cx="17.5001" cy="23.2955" r="14.2198"/>
</clipPath><clipPath id="bgblur_2_1308_2093_clip_path" transform="translate(-9.13867 -12.2651)"><path fill-rule="evenodd" clip-rule="evenodd" d="M13.6655 16.3104C14.0768 16.1652 14.5279 16.3807 14.6733 16.7919L17.5376 24.8915L21.9272 23.3886C22.34 23.2472 22.7898 23.468 22.9312 23.8808C23.0722 24.2933 22.8523 24.7422 22.4399 24.8837L17.3696 26.62C17.278 26.6513 17.1847 26.6634 17.0933 26.661C16.7509 26.6813 16.4224 26.476 16.3022 26.1366L13.1841 17.3192C13.0386 16.9079 13.2542 16.4559 13.6655 16.3104Z"/>
</clipPath><linearGradient id="paint0_linear_1308_2093" x1="-4.45311" y1="33.0294" x2="18.7011" y2="1.76228" gradientUnits="userSpaceOnUse">
<stop stop-color="#8800FF" stop-opacity="0.2"/>
<stop offset="1" stop-color="#8800FF" stop-opacity="0.8"/>
</linearGradient>
<linearGradient id="paint1_linear_1308_2093" x1="-0.985679" y1="40.3593" x2="31.7199" y2="9.07568" gradientUnits="userSpaceOnUse">
<stop stop-color="white" stop-opacity="0.2"/>
<stop offset="1" stop-color="white" stop-opacity="0.8"/>
</linearGradient>
<linearGradient id="paint2_linear_1308_2093" x1="13.2539" y1="25.2987" x2="15.5458" y2="29.8556" gradientUnits="userSpaceOnUse">
<stop stop-opacity="0.2"/>
<stop offset="1" stop-opacity="0.8"/>
</linearGradient>
</defs>
</svg>
