<svg width="53" height="53" viewBox="0 0 53 53" fill="none" xmlns="http://www.w3.org/2000/svg">
<path d="M5.89176 11.8136C5.65058 12.6182 5.521 13.471 5.521 14.3541C5.521 19.2326 9.47581 23.1874 14.3543 23.1874C19.2328 23.1874 23.1877 19.2326 23.1877 14.3541C23.1877 9.47557 19.2328 5.52075 14.3543 5.52075C13.4713 5.52075 12.6185 5.65033 11.8139 5.89152" stroke="#0042C8" stroke-width="2.5" stroke-linecap="round"/>
<path d="M48.2127 42.2904C48.4539 41.4858 48.5835 40.633 48.5835 39.7499C48.5835 34.8714 44.6287 30.9166 39.7502 30.9166C34.8716 30.9166 30.9168 34.8714 30.9168 39.7499C30.9168 44.6284 34.8716 48.5833 39.7502 48.5833C40.6332 48.5833 41.486 48.4537 42.2906 48.2125" stroke="#0042C8" stroke-width="2.5" stroke-linecap="round"/>
<path d="M5.521 38.6458C5.521 34.4818 5.521 32.3997 6.81461 31.1061C8.10822 29.8125 10.1903 29.8125 14.3543 29.8125C18.5184 29.8125 20.6004 29.8125 21.8941 31.1061C23.1877 32.3997 23.1877 34.4818 23.1877 38.6458C23.1877 42.8099 23.1877 44.8919 21.8941 46.1856C20.6004 47.4792 18.5184 47.4792 14.3543 47.4792C10.1903 47.4792 8.10822 47.4792 6.81461 46.1856C5.521 44.8919 5.521 42.8099 5.521 38.6458Z" stroke="#0042C8" stroke-width="2.5"/>
<path d="M29.8125 14.3541C29.8125 10.19 29.8125 8.10798 31.1061 6.81436C32.3997 5.52075 34.4818 5.52075 38.6458 5.52075C42.8099 5.52075 44.8919 5.52075 46.1856 6.81436C47.4792 8.10798 47.4792 10.19 47.4792 14.3541C47.4792 18.5182 47.4792 20.6002 46.1856 21.8938C44.8919 23.1874 42.8099 23.1874 38.6458 23.1874C34.4818 23.1874 32.3997 23.1874 31.1061 21.8938C29.8125 20.6002 29.8125 18.5182 29.8125 14.3541Z" stroke="#0042C8" stroke-width="2.5"/>
</svg>
